<svg xmlns="http://www.w3.org/2000/svg" fill="none" viewBox="0 0 48 48"><path fill="#303336" d="M9.73 20.1H6.99a2 2 0 0 1-1.86-1.3 1.95 1.95 0 0 0-.13.68 2 2 0 0 0 2 2h2.73a2 2 0 0 0 1.99-2 1.95 1.95 0 0 0-.13-.69 2 2 0 0 1-1.86 1.3Z"/><path fill="#303336" d="M7 20.1h2.73a2 2 0 0 0 1.86-1.3 2 2 0 0 0-1.86-1.3H6.99a2 2 0 0 0-1.86 1.3A2 2 0 0 0 7 20.1Z"/><path fill="url(#a)" d="M7 20.1h2.73a2 2 0 0 0 1.86-1.3 2 2 0 0 0-1.86-1.3H6.99a2 2 0 0 0-1.86 1.3A2 2 0 0 0 7 20.1Z" opacity=".4"/><path fill="#303336" d="M41.84 20.1h-2.73a2 2 0 0 1-1.86-1.3c-.09.21-.13.45-.13.68a2 2 0 0 0 1.99 2h2.74a2 2 0 0 0 1.99-2 1.95 1.95 0 0 0-.13-.69 2 2 0 0 1-1.86 1.3Z"/><path fill="#303336" d="M39.1 20.1h2.75a2 2 0 0 0 1.85-1.3 2 2 0 0 0-1.86-1.3h-2.73a2 2 0 0 0-1.86 1.3 2 2 0 0 0 1.86 1.3Z"/><path fill="url(#b)" d="M39.1 20.1h2.75a2 2 0 0 0 1.85-1.3 2 2 0 0 0-1.86-1.3h-2.73a2 2 0 0 0-1.86 1.3 2 2 0 0 0 1.86 1.3Z" opacity=".4"/><path fill="#F7F7F7" d="M24.12 46.72c10.28 0 18.62-1.49 18.62-3.32 0-1.84-8.34-3.33-18.62-3.33-10.3 0-18.63 1.49-18.63 3.33 0 1.83 8.34 3.32 18.63 3.32Z"/><path fill="#058567" d="M26.14 14.44a5.28 5.28 0 0 1-.02 2.91 2.62 2.62 0 0 1-.33.83l-.47-.16c.2-.2.17-.54.21-.8.05-.26.09-.53.1-.79a4.81 4.81 0 0 0 0-.78 2.44 2.44 0 0 0-.17-.7l.68-.51Z"/><path fill="#058567" d="M25.66 18.13c.09-.24.14-.5.15-.76a6.83 6.83 0 0 0 .11-.88 5.48 5.48 0 0 0 0-.87 2.74 2.74 0 0 0-.17-.8l.42-.31-.02-.07-.68.5c.09.23.14.47.16.71a4.8 4.8 0 0 1 0 .78 6.15 6.15 0 0 1-.1.79c-.04.26 0 .6-.2.8l.33.11Z" opacity=".19" style="mix-blend-mode:multiply"/><path fill="#058567" d="M25.44 18.04c.2-.2.16-.54.21-.8.05-.26.09-.52.1-.79a4.8 4.8 0 0 0 0-.78 2.47 2.47 0 0 0-.17-.7l.6-.45-.03-.08-.68.5c.09.23.14.47.16.71a4.8 4.8 0 0 1 0 .78 6.15 6.15 0 0 1-.1.79c-.04.26 0 .6-.2.8l.47.16v-.02l-.36-.12Z" opacity=".25" style="mix-blend-mode:multiply"/><path fill="#058567" d="M27.52 13.72c0 .42-.04.83-.12 1.24a11.87 11.87 0 0 1-.72 2.3c-.14.39-.36.75-.62 1.06L25.6 18a8.61 8.61 0 0 0 .77-2.08c.1-.36.17-.73.23-1.1.06-.35.09-.71.08-1.07l.84-.03Z"/><path fill="#058567" d="m25.94 18.24-.06-.05c.15-.33.32-.68.45-1.05a11.46 11.46 0 0 0 .69-3.4h-.34c.01.36-.02.73-.08 1.08a10.86 10.86 0 0 1-.56 2.18c-.14.35-.3.69-.44 1l.34.24Z" opacity=".13" style="mix-blend-mode:multiply"/><path fill="#058567" d="M25.7 18.04c.14-.32.3-.66.43-1a10.4 10.4 0 0 0 .65-3.26l.74-.02v-.04l-.84.03c.01.36-.02.72-.08 1.08a10.86 10.86 0 0 1-.56 2.17c-.14.35-.3.7-.44 1l.46.33.02-.03-.38-.26Z" opacity=".4" style="mix-blend-mode:multiply"/><path fill="#058567" d="M28.48 15.6c-.08.32-.21.62-.39.9a4.77 4.77 0 0 1-.57.72 5.92 5.92 0 0 1-.67.61 2.41 2.41 0 0 1-.82.46l-.4-.18c.2-.15.6-.6.8-.79a5.05 5.05 0 0 0 .55-.57c.17-.2.32-.42.45-.65.12-.2.21-.44.26-.68l.78.18Z"/><path fill="#058567" d="M26.66 17.4a5.66 5.66 0 0 0 1.05-1.32c.1-.2.2-.4.25-.6l-.26-.06a2.4 2.4 0 0 1-.27.68 4.05 4.05 0 0 1-.45.64c-.17.21-.35.4-.55.58-.2.18-.6.63-.8.79l.23.1c.22-.19.6-.63.8-.82Z" opacity=".12" style="mix-blend-mode:multiply"/><path fill="#058567" d="M25.7 18.13c.18-.15.59-.6.78-.79a5.06 5.06 0 0 0 1-1.21 2.38 2.38 0 0 0 .27-.69l.72.17-.78-.19c-.05.24-.14.47-.26.68a4.05 4.05 0 0 1-.45.65c-.17.2-.36.4-.56.57-.2.18-.6.64-.79.8l.4.17-.34-.16Z" opacity=".23" style="mix-blend-mode:multiply"/><path fill="#303336" d="M11 32.53h-.98a2.85 2.85 0 0 0-2.85 2.86v5.07a2.85 2.85 0 0 0 2.85 2.86h.99a2.85 2.85 0 0 0 2.85-2.86V35.4a2.85 2.85 0 0 0-2.85-2.86Z"/><path fill="url(#c)" d="M11 33.8h-.97a2.86 2.86 0 0 0-2.86 2.86v1.79a2.86 2.86 0 0 0 2.86 2.85H11a2.86 2.86 0 0 0 2.86-2.85v-1.8A2.86 2.86 0 0 0 11 33.8Z" opacity=".4"/><path fill="#303336" d="M38.36 32.53h-.98a2.85 2.85 0 0 0-2.86 2.86v5.07a2.85 2.85 0 0 0 2.86 2.86h.98a2.85 2.85 0 0 0 2.85-2.86V35.4a2.85 2.85 0 0 0-2.85-2.86Z"/><path fill="url(#d)" d="M38.35 33.8h-.97a2.86 2.86 0 0 0-2.86 2.86v1.79a2.86 2.86 0 0 0 2.86 2.85h.97a2.86 2.86 0 0 0 2.86-2.85v-1.8a2.86 2.86 0 0 0-2.86-2.85Z" opacity=".4"/><path fill="#E81E26" d="M42.5 33.9v-7.74a4.3 4.3 0 0 0-.21-1.37l-3.64-10.83a4.3 4.3 0 0 0-4.08-2.94h-20.1a4.3 4.3 0 0 0-4.08 2.94L6.62 25.19a4.31 4.31 0 0 0-.23 1.36v7.34a4.3 4.3 0 0 0 4.31 4.31h27.5a4.3 4.3 0 0 0 4.3-4.3Z"/><path fill="url(#e)" d="M42.5 33.05v-6.76a4.4 4.4 0 0 0-.2-1.43l-3.65-10.9a4.28 4.28 0 0 0-4-2.94H16.68a4.29 4.29 0 0 0-4.09 2.9L8.63 25.36a4.3 4.3 0 0 0-.22 1.37v6.31a4.3 4.3 0 0 0 4.3 4.3h25.54a4.25 4.25 0 0 0 4.26-4.28Z" opacity=".4"/><path fill="#E81E26" d="M9.23 24.63H8.3a.75.75 0 0 0-.75.76v3.55c0 .42.34.75.75.75h.94a.75.75 0 0 0 .76-.75v-3.55a.75.75 0 0 0-.76-.76Z"/><path fill="#303336" d="M8.76 24.63c-.67 0-1.22.55-1.22 1.23v2.61a1.22 1.22 0 0 0 2.45 0v-2.61c0-.68-.55-1.23-1.23-1.23Z" opacity=".3"/><path fill="#E81E26" d="M40.44 24.63c-.68 0-1.23.55-1.23 1.23v2.61a1.22 1.22 0 0 0 2.45 0v-2.61c0-.68-.55-1.23-1.22-1.23Z"/><path fill="#303336" d="M40.44 24.63c-.68 0-1.23.55-1.23 1.23v2.61a1.22 1.22 0 0 0 2.45 0v-2.61c0-.68-.55-1.23-1.22-1.23Z" opacity=".3"/><path fill="#fff" d="M34.65 12.3H14.2a2.02 2.02 0 0 0-2.01 2v17.44c0 1.1.9 2.01 2.01 2.01h20.45a2.02 2.02 0 0 0 2.01-2.01V14.3a2.02 2.02 0 0 0-2.01-2.02Z"/><path fill="#E81E26" d="M36.32 10.2a.86.86 0 0 1-.15-.01 58.22 58.22 0 0 0-22.93 0 .81.81 0 1 1-.28-1.6 59.7 59.7 0 0 1 23.5 0 .81.81 0 0 1-.14 1.61Z"/><path fill="#058567" d="M28.95 9s.47-.8-.46-5.48l1.4-.78s1.12 3.68-.05 6.4l-.9-.15Z"/><path fill="#058567" d="M29.45 9.05c.69-2.53 1-5.15.9-7.77L32.22 1s-.11 6.28-2.02 8.22l-.74-.17Z"/><path fill="#058567" d="m32.85 3.28 1.72.52s-1.74 4.8-4.5 5.62l-.7-.41a13.89 13.89 0 0 0 3.48-5.73Z"/><path fill="#FF8000" d="M26.32 9.82a24.45 24.45 0 0 0-1.72 6.21c-.37 2.1-.69 5.88.02 6.15.75.27 3.68-3.1 4.02-3.6a31.02 31.02 0 0 0 3.54-6.57c.5-1.51.36-3.3-1.83-4.13-1.86-.72-3.32.42-4.03 1.94Z"/><path fill="#fff" d="M31.3 9.1c-1.43-.7-2.12 1.8-.72 2.42 1.43.62 2.15-1.72.73-2.41Z" opacity=".3"/><path fill="#303336" d="M27.16 8.59a4 4 0 0 0 2.04 1.44.28.28 0 1 1-.2.51A4.34 4.34 0 0 1 26.8 9l.35-.4Zm-1.24 2.19a3.43 3.43 0 0 0 1.9 1.39.28.28 0 1 1-.2.51c-1.44-.57-1.75-1.02-1.93-1.3l.23-.6Zm-.91 3.2a3.98 3.98 0 0 0 1.34.75.22.22 0 0 0 .12-.42 3.85 3.85 0 0 1-1.36-.82l-.1.5Z" opacity=".2"/><path fill="#AD8764" d="M31.2 14.62H16.1a.45.45 0 0 0-.45.46v16.79c0 .25.2.45.46.45h15.08c.25 0 .45-.2.45-.45v-16.8a.45.45 0 0 0-.45-.45Z"/><path fill="#C7A984" d="M32.79 13.46H17.62a.41.41 0 0 0-.41.4v18.07c0 .23.18.41.4.41H32.8a.41.41 0 0 0 .41-.4V13.85a.41.41 0 0 0-.41-.4Z"/><path fill="#AD8764" d="M28.49 11.82h-7.32l1.72-1.91h4.3l1.3 1.9Z"/><path fill="#C7A984" d="M21.02 14h1.85l.01-4.1-1.86 1.67v2.44Zm8.01 0h-1.84l-.01-4.1 1.85 1.68V14Z"/><path fill="#AD8764" d="m22.76 19.42-3.06 2.96a.63.63 0 0 0 0 1l3.06 2.96a.08.08 0 0 0 .05.03.05.05 0 0 0 .05-.04.05.05 0 0 0 0-.02.09.09 0 0 0-.03-.06 5.09 5.09 0 0 1-1.24-3.36 5.14 5.14 0 0 1 1.24-3.38.09.09 0 0 0 .03-.06.05.05 0 0 0-.01-.04.05.05 0 0 0-.04-.02.08.08 0 0 0-.05.03Zm2.35-.25c-1.2 0-1.67 1.7-1.67 3.72s.47 3.7 1.67 3.7c.71 0 1.33-.42 1.33-.77a.29.29 0 0 0-.1-.2 1.34 1.34 0 0 1-.47-.96.97.97 0 0 1 .92-.96.99.99 0 0 1 .97 1.1 2.56 2.56 0 0 1-.52 1.47.09.09 0 0 0-.02.05c0 .03.02.05.05.05a.09.09 0 0 0 .06-.03l3.05-2.96a.62.62 0 0 0 0-1l-3.05-2.96a.09.09 0 0 0-.06-.03c-.03 0-.05.03-.05.06 0 .02 0 .03.02.05.32.42.5.93.52 1.47a.99.99 0 0 1-.97 1.1.97.97 0 0 1-.92-.97 1.34 1.34 0 0 1 .48-.95.29.29 0 0 0 .09-.2c0-.36-.62-.78-1.33-.78"/><defs><linearGradient id="a" x1="8.28" x2="8.3" y1="16.18" y2="21.12" gradientUnits="userSpaceOnUse"><stop stop-color="#fff" stop-opacity="0"/><stop offset="1" stop-color="#fff"/></linearGradient><linearGradient id="b" x1="40.39" x2="40.42" y1="16.18" y2="21.12" gradientUnits="userSpaceOnUse"><stop stop-color="#fff" stop-opacity="0"/><stop offset="1" stop-color="#fff"/></linearGradient><linearGradient id="c" x1="9.91" x2="11.52" y1="45.47" y2="28.82" gradientUnits="userSpaceOnUse"><stop stop-color="#fff" stop-opacity="0"/><stop offset="1" stop-color="#fff"/></linearGradient><linearGradient id="d" x1="37.26" x2="38.87" y1="45.47" y2="28.82" gradientUnits="userSpaceOnUse"><stop stop-color="#fff" stop-opacity="0"/><stop offset="1" stop-color="#fff"/></linearGradient><linearGradient id="e" x1="4.8" x2="31.57" y1="32.05" y2="16.43" gradientUnits="userSpaceOnUse"><stop stop-color="#fff" stop-opacity="0"/><stop offset="1" stop-color="#fff"/></linearGradient></defs></svg>