<svg xmlns="http://www.w3.org/2000/svg" fill="none" viewBox="0 0 48 48"><path fill="#058567" d="M25.42 8.51s.45-.74-.43-5.14l1.33-.73s1.04 3.45-.06 6l-.84-.13Z"/><path fill="#058567" d="M25.89 8.56a24.74 24.74 0 0 0 .86-7.3L28.48 1s-.1 5.9-1.9 7.73l-.7-.17Z"/><path fill="#058567" d="m29.09 3.14 1.62.5s-1.64 4.5-4.23 5.27l-.66-.38a13.06 13.06 0 0 0 3.27-5.4Z"/><path fill="#FF8000" d="M22.95 9.3a22.96 22.96 0 0 0-1.62 5.83c-.34 1.98-.64 5.53.02 5.77.7.27 3.47-2.9 3.78-3.37a29.18 29.18 0 0 0 3.33-6.19 2.8 2.8 0 0 0-1.72-3.88c-1.75-.67-3.12.4-3.79 1.83Z"/><path fill="#fff" d="M27.64 8.62c-1.35-.66-2 1.7-.68 2.27 1.34.58 2.02-1.62.68-2.27Z" opacity=".3"/><path fill="#303336" d="M23.74 8.12a3.73 3.73 0 0 0 1.92 1.37.26.26 0 1 1-.14.5 4.03 4.03 0 0 1-2.1-1.48l.32-.4Zm-1.17 2.07a3.22 3.22 0 0 0 1.8 1.3.26.26 0 0 1-.14.5.29.29 0 0 1-.05-.01c-1.36-.53-1.66-.96-1.82-1.23l.21-.56Zm-.85 3.01a3.75 3.75 0 0 0 1.26.7.2.2 0 0 0 .11-.39 3.65 3.65 0 0 1-1.27-.77l-.1.46Z" opacity=".2"/><path fill="#F7F7F7" d="M23.67 47.24c11.27 0 20.4-1.16 20.4-2.6 0-1.42-9.13-2.58-20.4-2.58S3.25 43.22 3.25 44.65s9.14 2.59 20.42 2.59Z"/><path fill="#E81E26" d="M43.72 29.6 33.7 21.68c-.58-.47-1.23-.35-2.15-.39l-2.69-.06a2.58 2.58 0 0 0-2.57 2.57v16.39h16.59a1.43 1.43 0 0 0 1.43-1.44v-7.99a1.43 1.43 0 0 0-.59-1.16Z"/><path fill="url(#a)" d="M43.72 29.6 33.7 21.68c-.63-.48-1.04-.36-2.15-.39l-2.69-.06a2.58 2.58 0 0 0-2.57 2.57v16.39h16.59a1.43 1.43 0 0 0 1.43-1.44v-7.99a1.43 1.43 0 0 0-.59-1.16Z" opacity=".4"/><path fill="#fff" d="M34.98 24.31a3 3 0 0 0-.77-.46 4.05 4.05 0 0 0-1.44-.27H31.2a.4.4 0 0 0-.4.4v5.72a.4.4 0 0 0 .4.4l6.98.04a1.46 1.46 0 0 0 .88-2.63l-4.09-3.2Z"/><path fill="#E81E26" d="M28 35.63H4.3c-.6 0-1.08.49-1.08 1.09v2.36c0 .6.48 1.08 1.08 1.08H28c.6 0 1.08-.48 1.08-1.08v-2.36c0-.6-.48-1.09-1.08-1.09Zm-.78-.84H5.24a.48.48 0 1 1 0-.97h21.98a.48.48 0 0 1 0 .97Zm0-2.26H5.24a.48.48 0 0 1 0-.97h21.98a.48.48 0 0 1 0 .97Zm0-2.37H5.24a.49.49 0 0 1 0-.97h21.98a.49.49 0 0 1 0 .97Z"/><path fill="#303336" d="M3.01 35.69h26.11v4.5H4.18A1.16 1.16 0 0 1 3 39.03V35.7Z"/><path fill="#D2D2D2" d="M3 38.66h26.12v1.53H3.91a.9.9 0 0 1-.91-.9v-.63Z"/><path fill="#303336" d="M29.14 23.91h-1v13.25h1V23.9Z"/><path fill="#AD8764" d="M25.39 14.62H3.5a.45.45 0 0 0-.45.45v20.24c0 .25.2.45.45.45h21.89c.25 0 .45-.2.45-.45V15.07a.45.45 0 0 0-.45-.45Z"/><path fill="#C7A984" d="M5.8 13.02h21.96a.41.41 0 0 1 .41.41v22.42H5.8a.41.41 0 0 1-.4-.4V13.42a.41.41 0 0 1 .4-.4Z"/><path fill="#AD8764" d="M20.83 10.5H10.4l2.45-2.73h6.13l1.85 2.73Z"/><path fill="#C7A984" d="M10.19 13.61h2.63l.03-5.85-2.66 2.39v3.46Zm11.42 0h-2.63V7.77l2.63 2.38v3.46Z"/><path fill="#303336" d="M10.55 44.16a4.03 4.03 0 1 0 0-8.06 4.03 4.03 0 0 0 0 8.06Z"/><path fill="#fff" d="M10.55 42.43a2.3 2.3 0 1 0 0-4.6 2.3 2.3 0 0 0 0 4.6Z"/><path fill="#E5E5E5" d="M10.55 41.24a1.1 1.1 0 1 0 0-2.22 1.1 1.1 0 0 0 0 2.22Z"/><path fill="#303336" d="M37.9 44.16a4.03 4.03 0 1 0 0-8.06 4.03 4.03 0 0 0 0 8.06Z"/><path fill="#fff" d="M37.9 42.43a2.3 2.3 0 1 0 0-4.6 2.3 2.3 0 0 0 0 4.6Z"/><path fill="#E5E5E5" d="M37.9 41.24a1.1 1.1 0 1 0 0-2.22 1.1 1.1 0 0 0 0 2.22Z"/><path fill="#fff" d="m27.92 36.01-24.88-.16v-.59l24.88.16a.26.26 0 0 0 .25-.26V21.22h.6v13.94a.85.85 0 0 1-.85.85Z"/><path fill="#AD8764" d="m13.67 20.5-3.98 3.85a.81.81 0 0 0 0 1.3l3.98 3.85a.1.1 0 0 0 .07.04.07.07 0 0 0 .06-.05v-.03a.12.12 0 0 0-.03-.07A6.63 6.63 0 0 1 12.15 25a6.7 6.7 0 0 1 1.62-4.4.12.12 0 0 0 .03-.07.07.07 0 0 0-.03-.07.07.07 0 0 0-.03 0 .1.1 0 0 0-.07.03m3.06-.33c-1.56 0-2.17 2.2-2.17 4.84s.61 4.82 2.17 4.82c.94 0 1.74-.55 1.74-1a.39.39 0 0 0-.12-.28 1.74 1.74 0 0 1-.62-1.23 1.27 1.27 0 0 1 1.2-1.26 1.29 1.29 0 0 1 1.26 1.43 3.34 3.34 0 0 1-.68 1.91.12.12 0 0 0-.02.07.07.07 0 0 0 .06.07.11.11 0 0 0 .07-.04l3.99-3.85a.81.81 0 0 0 0-1.3l-3.99-3.86a.11.11 0 0 0-.07-.03.06.06 0 0 0-.06.04.07.07 0 0 0 0 .03c0 .02 0 .05.02.06.42.56.66 1.22.68 1.92a1.28 1.28 0 0 1-1.26 1.43 1.27 1.27 0 0 1-1.2-1.26 1.74 1.74 0 0 1 .62-1.24.38.38 0 0 0 .12-.27c0-.45-.8-1-1.74-1"/><defs><linearGradient id="a" x1="26.3" x2="44.31" y1="30.71" y2="30.71" gradientUnits="userSpaceOnUse"><stop stop-color="#fff" stop-opacity="0"/><stop offset="1" stop-color="#fff"/></linearGradient></defs></svg>