<svg xmlns="http://www.w3.org/2000/svg" fill="none" viewBox="0 0 24 24"><path fill="#058567" d="M14.13 2.14a1.59 1.59 0 0 0-.18-.57l-.04-.12a1.64 1.64 0 0 0-.7-.75 1.55 1.55 0 0 0-1.18-.14.26.26 0 0 0-.08-.04c-.2-.04-.34.22-.53.32-.12.06-.27.05-.39.1a.67.67 0 0 0-.26.27c-.2.3-.3.65-.34 1V2.56l.01.05.01.05.05.18a1.7 1.7 0 0 0 1.59 1.37c.47.05.94-.07 1.33-.33a.32.32 0 0 0 .13-.05 1.83 1.83 0 0 0 .58-1.68Z"/><path fill="#E81E26" d="M9.95 4.19a1.14 1.14 0 0 0-1.08.65 1.51 1.51 0 0 1-.38.39 1.14 1.14 0 0 0-.6 1.1 1.76 1.76 0 0 0 .76 1.26 1.45 1.45 0 0 0 1.67.08c.22-.13.41-.3.57-.51.2-.16.36-.36.49-.58a1.45 1.45 0 0 0-.15-1.67 1.76 1.76 0 0 0-1.28-.72Z"/><path fill="#fff" d="M8.64 6.67a.37.37 0 1 0 0-.75.37.37 0 0 0 0 .75Z" opacity=".3"/><path fill="#303336" d="M9.95 4.19a1.14 1.14 0 0 0-1.08.65 1.51 1.51 0 0 1-.38.39 1.02 1.02 0 0 0-.34.27c.2-.14.43.07.9-.51.45-.54 1.56-.2 1.9.68.2.55-.12 1.4-.94 2.15.1-.04.21-.09.31-.15a1.9 1.9 0 0 0 .57-.5c.2-.17.36-.36.49-.59a1.45 1.45 0 0 0-.15-1.67 1.76 1.76 0 0 0-1.28-.72Z" opacity=".3"/><path fill="#00A881" d="M8.55 4.93a.5.5 0 0 0-.5.1.53.53 0 0 1 .34.08.57.57 0 0 0-.34.37.55.55 0 0 1 .43-.16.35.35 0 0 0 .04.18l.14.12c-.04-.2.22-.35.1-.48a.65.65 0 0 1 .47-.1c-.18-.2-.3-.15-.3-.15.02-.15.23-.27.35-.34a.5.5 0 0 0-.46.17.42.42 0 0 1 .08-.38.55.55 0 0 0-.34.59Z"/><path fill="#00A881" d="M8.15 4.34c-.03.3.3.6.48.72a.06.06 0 0 0 .04-.05 1.61 1.61 0 0 1-.3-.37.46.46 0 0 1-.05-.3.11.11 0 0 0-.17 0Z"/><path fill="#303336" d="M11.75.65a.61.61 0 0 0-.29.19c-.07.1-.08.24-.16.34-.11.15-.37.22-.37.42 0 .14.15.25.18.4.04.2-.12.23-.06.43.07.24.34.23.44.46.06.13.04.31.25.42.08.04.27 0 .36.03.12.02.16.1.27.15.15.07.25.07.48-.12.14-.12.17-.16.36-.1.22.08.3 0 .33-.07.06-.1.06-.17.12-.26.09-.14.28-.1.33-.27.06-.19-.07-.29-.07-.47 0-.11.07-.2.08-.3a.93.93 0 0 0-.1-.45 1.62 1.62 0 0 0-2.15-.8Z" opacity=".3"/><path fill="#4CCD8A" d="M10.76 1.21a.67.67 0 0 1 .27-.27c.12-.05.27-.04.4-.1.18-.1.31-.35.52-.32.15.03.23.2.37.24.2.08.27-.08.46 0 .23.11.15.4.36.53.12.08.32.1.37.32.02.1-.06.28-.06.38 0 .12.07.18.1.3.02.16 0 .26-.26.47-.15.12-.2.16-.18.35.02.24-.07.3-.17.33-.12.05-.18.03-.3.08-.16.07-.16.27-.35.3-.22.03-.29-.11-.48-.14a2.83 2.83 0 0 0-.32.03.72.72 0 0 1-.4-.12 1.66 1.66 0 0 1-.54-.62 1.95 1.95 0 0 1 .21-1.76Z"/><path fill="#B0EAC7" d="M12.24 2.88c.04-.14-.03-.27-.08-.4-.04-.16.04-.36-.08-.46-.08-.08-.2-.06-.3-.12-.11-.08-.14-.26-.27-.31-.13-.05-.26.07-.38.14s-.25-.02-.37.05a.84.84 0 0 0-.33.45c-.03.25.02.5.12.74.13.25.31.46.54.62a.7.7 0 0 0 .4.12c0-.07.02-.15.1-.18.11-.04.25 0 .33-.08.08-.08.04-.2.1-.29.06-.13.18-.15.22-.28Z"/><path fill="#fff" fill-rule="evenodd" d="M12.16 1.07a.46.46 0 0 0-.05.04.9.9 0 0 1-.05.05.31.31 0 0 0-.04.04l-.02.03-.02.03h-.01l-.03.05-.01.01-.03.04-.03.06a.72.72 0 0 0-.02.04v.02a.53.53 0 0 0-.04.08l-.01.04-.02.06v.04a.45.45 0 0 0-.02.09v.06a.47.47 0 0 0 0 .04 1.96 1.96 0 0 1 1-.2 2.18 2.18 0 0 0-1.35.67.87.87 0 0 0 .1.08l.06.04.08.05h.02a1.9 1.9 0 0 0 .16.08l.05.02h.01l.04.02.09.02a.82.82 0 0 0 .17.03h.03a.67.67 0 0 0 .13 0 .74.74 0 0 0 .1 0h.02a.57.57 0 0 0 .05 0l.05-.01.05-.01.07-.02.03-.01a.89.89 0 0 0 .05-.02l.05-.01-.03.01a.49.49 0 0 1-.21.1l-.05.01a.45.45 0 0 1-.05.01h-.01l-.04.02h-.02a.9.9 0 0 1-.08.01h-.11a.58.58 0 0 1-.1 0h-.06L12 2.76a.93.93 0 0 1-.1-.02l-.06-.02h-.01l-.04-.02a1.46 1.46 0 0 1-.47-.27c-.13.15-.24.32-.32.5a1.14 1.14 0 0 0 .29.22 1.36 1.36 0 0 0 .2.1.74.74 0 0 0 .07.02l.03.01.04.01.08.02h.02a.99.99 0 0 0 .13.02 1.04 1.04 0 0 0 .08 0h.03a.46.46 0 0 1 .04 0l-.07.02a.63.63 0 0 1-.08 0l-.04.01h-.12a.6.6 0 0 1-.06 0h-.02a.9.9 0 0 1-.07-.01.9.9 0 0 1-.05-.02h-.03a.45.45 0 0 1-.07-.02h-.01a1.68 1.68 0 0 1-.15-.07.79.79 0 0 1-.1-.05l-.04-.03h-.01l-.06-.04a.78.78 0 0 1-.08-.07c-.04.1-.07.22-.1.34a1.64 1.64 0 0 1-.21-.26s.07-.2.23-.44a.89.89 0 0 1-.12-.59 1.12 1.12 0 0 1 .06-.26 1.36 1.36 0 0 1 .2-.39l-.06.16-.01.03-.04.14a1.4 1.4 0 0 0-.06.33.9.9 0 0 0 .1.47 2.3 2.3 0 0 1 .7-.65v-.03l.01-.07.01-.07a.47.47 0 0 1 .02-.07v-.02l.01-.04.03-.07a.53.53 0 0 1 .02-.06.47.47 0 0 1 .04-.06v-.02l.03-.04.04-.06.04-.05a.66.66 0 0 1 .03-.03l.02-.02a.36.36 0 0 1 .03-.03.45.45 0 0 1 .06-.05l.02-.01a.71.71 0 0 1 .1-.07Z" clip-rule="evenodd"/><path fill="#C7A984" d="M7.6 2.77a.9.9 0 0 0-.78-.4c-.3 0-.56.1-.8.28-.22.16-.41.36-.64.52a2.85 2.85 0 0 0-.48.36 1.5 1.5 0 0 0-.3.57 2.1 2.1 0 0 0-.13.83c.01.3.15.58.37.78.23.19.52.28.8.25.28-.02.54-.11.78-.26a3.1 3.1 0 0 0 1.3-1.55 1.62 1.62 0 0 0-.12-1.38Z"/><path fill="#AD8764" d="M6.81 2.36c-.27.01-.53.1-.75.27.24 0 .46.07.65.22.27.2.73.74.07 1.83a2.28 2.28 0 0 1-1.79 1.14c.2.1.43.16.66.15.27-.03.53-.12.76-.27a3.1 3.1 0 0 0 1.3-1.55 1.62 1.62 0 0 0-.1-1.39.9.9 0 0 0-.8-.4Z"/><path fill="#303336" d="M4.9 4.44a.06.06 0 1 1-.08.08.06.06 0 0 1 .07-.08Zm2.56-1.46a.06.06 0 0 1 0 .08.06.06 0 1 1-.08-.08.06.06 0 0 1 .08 0Zm-.17 1.27a.06.06 0 1 1-.07.09.06.06 0 0 1 .07-.09Zm-1.54-.94a.06.06 0 1 1-.07.09.06.06 0 0 1 .07-.09Zm.8-.25a.06.06 0 1 1-.06.1.06.06 0 0 1 .06-.1Zm-1.39 2.2a.06.06 0 1 1-.07.09.06.06 0 0 1 .07-.09Zm1.02-.82a.06.06 0 0 1 0 .08.06.06 0 1 1-.08-.07.06.06 0 0 1 .08-.01Zm.08 1.06a.06.06 0 1 1-.07.08.06.06 0 0 1 .07-.08Z" opacity=".5"/><path fill="#F7F7F7" d="M14 23.97c2.91 0 5.28-.58 5.28-1.29S16.92 21.4 14 21.4c-2.91 0-5.28.58-5.28 1.3 0 .7 2.36 1.28 5.29 1.28Z"/><path fill="#AD8764" d="M20.54 18.93a28.6 28.6 0 0 1-10.6 2.04.4.4 0 0 1-.38-.37c-.36-4.44-.7-8.6-1.59-12.34a.37.37 0 0 1 .22-.41 68.37 68.37 0 0 1 9.24-3.17.31.31 0 0 1 .35.3c.63 4.58 1.41 9.14 2.95 13.48a.36.36 0 0 1-.19.47Z"/><path fill="#C7A984" d="M21.62 18.56a30.6 30.6 0 0 1-10.44 2.45.36.36 0 0 1-.36-.33c-.54-4.85-.98-9.44-2-13.57a.35.35 0 0 1 .2-.4 47.47 47.47 0 0 1 9.4-3.13.29.29 0 0 1 .32.28c.56 4.87 1.35 9.67 3.09 14.16a.42.42 0 0 1-.21.54Z"/><path fill="#FFBDBD" d="M7.82 13.44h-3.4a.4.4 0 0 1 0-.81h3.4a.4.4 0 1 1 0 .8Zm-1.5 1.47H2.9a.4.4 0 1 1 0-.8h3.41a.4.4 0 0 1 .38.55.4.4 0 0 1-.38.25Zm1.54 1.4H4.45a.4.4 0 1 1 0-.81h3.4a.4.4 0 0 1 0 .8Z"/><path fill="#AD8764" d="m13.1 11.03-1.48 2.32a.4.4 0 0 0 .15.63l2.37 1.41a.05.05 0 0 0 .04.01.03.03 0 0 0 .02-.02.03.03 0 0 0 0-.02.06.06 0 0 0-.03-.03 3.3 3.3 0 0 1-1.28-1.94 3.34 3.34 0 0 1 .27-2.32.06.06 0 0 0 .01-.04.03.03 0 0 0-.02-.02.03.03 0 0 0-.02 0 .05.05 0 0 0-.03.02Zm1.45-.51c-.76.18-.8 1.32-.5 2.6s.85 2.25 1.6 2.08c.46-.11.78-.47.73-.69a.19.19 0 0 0-.09-.12.87.87 0 0 1-.44-.52.63.63 0 0 1 .44-.75.64.64 0 0 1 .77.54c.07.34.03.7-.1 1a.06.06 0 0 0 0 .04c0 .02.01.03.03.03a.06.06 0 0 0 .03-.03l1.48-2.32a.4.4 0 0 0-.15-.63l-2.37-1.4a.06.06 0 0 0-.04-.01.03.03 0 0 0-.02.01.03.03 0 0 0 0 .03.06.06 0 0 0 .02.03c.27.22.46.51.55.85a.64.64 0 0 1-.44.83.63.63 0 0 1-.73-.47.87.87 0 0 1 .16-.67.19.19 0 0 0 .02-.14c-.05-.22-.5-.4-.95-.29m.6-7L10.12 4.7 11 3.1l2.96-.7 1.2 1.12Z"/><path fill="#C7A984" d="m10.36 6.23 1.27-.3-.64-2.83-1.02 1.45.39 1.68Zm5.52-1.29-1.27.3-.66-2.83 1.54.85.4 1.68Z"/></svg>