<svg xmlns="http://www.w3.org/2000/svg" fill="none" viewBox="0 0 64 64"><path fill="#121212" d="M30.82 63.91c9.01.05 16.32-1.37 16.32-3.17.01-1.8-7.28-3.3-16.3-3.35-9-.05-16.3 1.37-16.31 3.17 0 1.8 7.29 3.3 16.3 3.35z" opacity=".1"/><path fill="#0970E6" d="M48.57 31.17c0-9.82-8.44-17.78-18.84-17.78-10.41 0-18.84 7.96-18.84 17.78.1 3.63 1.25 7.15 3.3 10.07a17.11 17.11 0 0 0 8.19 6.31l.7 5.06a.77.77 0 0 0 .17.39.72.72 0 0 0 .33.23.69.69 0 0 0 .4.01.72.72 0 0 0 .35-.21l6.4-4.12c9.94-.5 17.84-8.24 17.84-17.74z"/><path fill="url(#a)" d="M48.6 30.9c0-9.59-8.24-17.36-18.4-17.36-10.16 0-18.4 7.77-18.4 17.36a18 18 0 0 0 3.24 9.83c2 2.86 4.8 5 7.99 6.16l.69 4.9a.76.76 0 0 0 .16.37.7.7 0 0 0 .32.23.67.67 0 0 0 .4.01.7.7 0 0 0 .33-.2l6.26-3.99c9.7-.48 17.4-8.04 17.4-17.31z" opacity=".41"/><path fill="#0970E6" d="M30.89 20.88c3.87 0 6.59 2.27 6.59 6.23 0 3.95-2.77 5.9-6.55 5.9l-.13 2.28h-3.44l-.24-5h1.3c2.95 0 5.15-.56 5.15-3.2a2.67 2.67 0 0 0-.15-1.1 2.6 2.6 0 0 0-.59-.93 2.5 2.5 0 0 0-.9-.6 2.44 2.44 0 0 0-1.07-.14 2.42 2.42 0 0 0-1.09.13 2.48 2.48 0 0 0-.92.59 2.58 2.58 0 0 0-.6.94c-.12.35-.18.73-.15 1.1h-3.73c-.05-3.56 2.38-6.2 6.52-6.2zm-1.84 21.41a2.29 2.29 0 0 1-1.28-.44 2.4 2.4 0 0 1-.83-1.1 2.48 2.48 0 0 1-.1-1.39c.1-.46.33-.88.66-1.21a2.32 2.32 0 0 1 2.54-.48c.42.18.78.5 1.04.9a2.47 2.47 0 0 1-.34 3.05 2.35 2.35 0 0 1-1.69.68z"/><path fill="#fff" d="M30.1 20.85c3.87 0 6.59 2.27 6.59 6.23 0 3.95-2.8 5.94-6.55 5.94l-.12 2.27h-3.44l-.16-5h1.3c2.95 0 5.15-.55 5.15-3.2A2.66 2.66 0 0 0 32.7 26a2.6 2.6 0 0 0-.6-.91 2.5 2.5 0 0 0-.92-.57 2.44 2.44 0 0 0-1.07-.12 2.42 2.42 0 0 0-1.08.12 2.48 2.48 0 0 0-.92.6 2.58 2.58 0 0 0-.6.93c-.13.36-.18.74-.15 1.11h-3.78c0-3.63 2.37-6.31 6.53-6.31zM28.26 42.3a2.3 2.3 0 0 1-1.28-.44 2.4 2.4 0 0 1-.83-1.1 2.48 2.48 0 0 1-.1-1.38c.1-.47.32-.9.65-1.22.33-.33.75-.56 1.2-.64a2.27 2.27 0 0 1 1.34.15c.43.18.79.49 1.04.89a2.47 2.47 0 0 1 .2 2.27c-.12.3-.3.57-.52.79a2.33 2.33 0 0 1-.78.52 2.27 2.27 0 0 1-.92.16z"/><path fill="#FFBDBD" fill-rule="evenodd" d="m41.64 1.18-.37 5.4a.8.8 0 0 0 .2.6.81.81 0 0 0 .56.27.83.83 0 0 0 .6-.2.82.82 0 0 0 .28-.55l.37-5.4a.81.81 0 0 0-.2-.6.83.83 0 0 0-.55-.28.84.84 0 0 0-.6.2.83.83 0 0 0-.29.56zm7.18 3.56-4.11 3.57a.8.8 0 0 0-.23.87.8.8 0 0 0 .4.46.82.82 0 0 0 .9-.12l4.12-3.55a.82.82 0 0 0 .24-.87.82.82 0 0 0-.15-.28.83.83 0 0 0-1.17-.07zm-1.49 7.09 5.44-.44a.82.82 0 0 1 .6.18.8.8 0 0 1-.45 1.43l-5.46.45a.82.82 0 0 1-.79-.44.8.8 0 0 1 .36-1.08.82.82 0 0 1 .3-.09v-.01zm14.74 8.59a4.07 4.07 0 0 0-1.56-.75 4.05 4.05 0 0 0-4.76.86 3.98 3.98 0 0 0-.87 1.47l2.42.87a1.88 1.88 0 0 1 2.38-1.02 1.88 1.88 0 0 1 1.04.93c.21.43.26.92.11 1.38-.57 1.63-2.13 1.47-4.05.77l-.84-.29-1.05 3.13 2.27.81.6-1.37c2.44.9 4.67.32 5.58-2.13a3.98 3.98 0 0 0-.17-3.35 4.03 4.03 0 0 0-1.1-1.32zm-8.2 11.8c.16.15.35.26.55.32a1.62 1.62 0 0 0 1.76-.4 1.59 1.59 0 0 0 .43-1.16 1.58 1.58 0 0 0-.55-1.12 1.61 1.61 0 0 0-.55-.31 1.62 1.62 0 0 0-1.75.4 1.6 1.6 0 0 0-.43 1.17 1.58 1.58 0 0 0 .54 1.1zM8.81 3.53a3.3 3.3 0 0 1 4.8 1.46c.95 1.9 0 3.52-1.87 4.38l.49 1.13-1.76.86L9.2 8.97l.65-.32c1.47-.73 2.46-1.54 1.81-2.81a1.37 1.37 0 0 0-.85-.8 1.4 1.4 0 0 0-1.17.13 1.47 1.47 0 0 0-.8.85 1.45 1.45 0 0 0 .08 1.16l-1.88.92a3.22 3.22 0 0 1 .6-3.85 3.28 3.28 0 0 1 1.18-.73zm4.21 10.78a1.3 1.3 0 0 1-1.81-.56 1.35 1.35 0 0 1 .13-1.51 1.37 1.37 0 0 1 1.47-.44c.26.08.5.23.67.44a1.35 1.35 0 0 1-.46 2.07zM6.56 19.9a2.49 2.49 0 0 0-.86-.61 2.5 2.5 0 0 0-2.02-.4 2.5 2.5 0 0 0-1.64 1.24l1.37.8a1.05 1.05 0 0 1 .7-.56 1.07 1.07 0 0 1 .88.17 1.04 1.04 0 0 1 .58.67 1.03 1.03 0 0 1-.15.87c-.53.89-1.46.6-2.54 0l-.47-.28-.97 1.78 1.27.73.51-.76a2.4 2.4 0 0 0 1.97.48 2.4 2.4 0 0 0 1.63-1.18 2.45 2.45 0 0 0-.26-2.95zM.25 25.98a.98.98 0 0 0 .38.43.98.98 0 0 0 1.37-.34.97.97 0 0 0-.52-1.41 1 1 0 0 0-1.06.26.97.97 0 0 0-.17 1.07z" clip-rule="evenodd"/><defs><linearGradient id="a" x1="43.11" x2="19.14" y1="17.97" y2="38.05" gradientUnits="userSpaceOnUse"><stop stop-color="#fff" stop-opacity="0"/><stop offset="1" stop-color="#fff"/></linearGradient></defs></svg>