<svg xmlns="http://www.w3.org/2000/svg" viewBox="0 0 48 48"><path fill="#D2D2D2" d="M21.24 6.85H3.59v38.66h17.65V6.85z"/><path fill="#E5E5E5" d="M8.32 6.92h-.58v38.61h.58V6.92zm4.27 0h-.58v38.59h.58V6.92zm4.28 0h-.58v10.7h.58V6.92z"/><path fill="#E5E5E5" d="M33.99 17.61H11.85v15.6h22.14v-15.6z"/><path fill="#C20016" d="M37.34 21.38H8.51V45.5h28.83V21.38z"/><path fill="url(#a)" d="M37.34 21.38H8.51V45.5h28.83V21.38z" opacity=".41"/><path fill="#E5E5E5" d="M32.62 32.2h-19.4v13.3h19.4V32.2z"/><path fill="#fff" d="M23.21 32.2h-.58v13.39h.58V32.2z"/><path fill="#F7F7F7" d="M1.5 14.55h17.59S16.8 9.9 13.3 12.49a4.52 4.52 0 0 0-2.82-2c-1.9-.3-3.48.4-4.87 3 0-.01-3.2-.92-4.11 1.06z"/><path fill="#4CCD8A" d="M45.22 31.83a3.59 3.59 0 0 0-.32-5.34 2.91 2.91 0 0 0 .31-3.1 2.87 2.87 0 1 0-4.79 3.1 3.58 3.58 0 0 0-.33 5.34 4.48 4.48 0 1 0 5.13 0z"/><path fill="#303336" d="M40.14 31.8a4.42 4.42 0 0 0-.93 2.76c0 2.21 2 4.72 4.23 4.72a4 4 0 0 0 2.83-1.17A4.36 4.36 0 0 1 42 39.93a4.7 4.7 0 0 1-3.5-2.78 4.75 4.75 0 0 1 .65-4.47l.99-.88z" opacity=".25"/><path fill="#303336" d="M42.79 25.93h-.29v19.61h.29V25.93z"/><path fill="#303336" d="m41.27 28.1-.21.2 1.47 1.54.21-.2-1.47-1.54zm0 7.36-.2.2 1.47 1.54.2-.2-1.46-1.54zM44 32.35l-1.46 1.41.2.2 1.47-1.4-.2-.21z"/><path fill="#F7F7F7" d="M28 11.5h13.69s-1.77-3.6-4.49-1.59A3.52 3.52 0 0 0 35 8.37c-1.48-.23-2.7.31-3.78 2.31.01 0-2.47-.68-3.22.82z"/><path fill="#929292" d="M25.08 39.48a.58.58 0 1 0 0-1.16.58.58 0 0 0 0 1.16z"/><path fill="#929292" fill-rule="evenodd" d="M13.19 32.19v13.3h.67V32.87h18.77v-.71l-19.44.03z" clip-rule="evenodd"/><path fill="#929292" d="M20.82 39.46a.58.58 0 1 0 0-1.16.58.58 0 0 0 0 1.16z"/><path fill="#fff" fill-rule="evenodd" d="M21.42 24.21a.06.06 0 0 1 .04-.02h.02a.04.04 0 0 1 .02.03.04.04 0 0 1 0 .02.07.07 0 0 1-.02.04 4.24 4.24 0 0 0 0 5.45.07.07 0 0 1 .02.05.04.04 0 0 1-.02.04.04.04 0 0 1-.02 0 .06.06 0 0 1-.04-.02l-2.46-2.4a.5.5 0 0 1 0-.8l2.46-2.4m1.86-.2c-.96 0-1.34 1.38-1.34 3.01S22.32 30 23.28 30c.57 0 1.07-.34 1.07-.62a.24.24 0 0 0-.08-.17 1.09 1.09 0 0 1-.38-.77.79.79 0 0 1 .74-.78.8.8 0 0 1 .78.89 2.09 2.09 0 0 1-.42 1.19.07.07 0 0 0-.01.04.04.04 0 0 0 0 .03.04.04 0 0 0 .03.01.07.07 0 0 0 .05-.02l2.46-2.4a.5.5 0 0 0 0-.8l-2.46-2.4a.07.07 0 0 0-.04-.02.04.04 0 0 0-.04.03.04.04 0 0 0 0 .01.07.07 0 0 0 .01.04c.26.34.4.76.42 1.19a.8.8 0 0 1-.78.89.79.79 0 0 1-.74-.79 1.09 1.09 0 0 1 .38-.76.24.24 0 0 0 .08-.17c0-.28-.5-.62-1.07-.62" clip-rule="evenodd" opacity=".71"/><defs><linearGradient id="a" x1="20.34" x2="41.25" y1="35.24" y2="24.75" gradientUnits="userSpaceOnUse"><stop stop-color="#fff" stop-opacity="0"/><stop offset="1" stop-color="#fff"/></linearGradient></defs></svg>