<svg xmlns="http://www.w3.org/2000/svg" fill="none" viewBox="0 0 41 40"><path fill="#0663CC" d="M34.31 17.29h-1.66a12.62 12.62 0 0 0-25.24 0H5.74a14.29 14.29 0 0 1 28.57 0z"/><path fill="#0970E6" d="M34.31 17.29h-1.66a12.62 12.62 0 0 0-25.24 0H5.74a14.29 14.29 0 0 1 28.57 0z"/><path fill="#E81E26" d="M28.11 35.37h-3.76v-.78h3.76a4.14 4.14 0 0 0 3.49-2.32l.1-.26a90.31 90.31 0 0 0 1.04-2.56v-.03h.77v.1a17.43 17.43 0 0 1-1.1 2.79l-.1.26a4.92 4.92 0 0 1-4.2 2.8z"/><path fill="#E81E26" d="M19.67 37.59h2.7a2.8 2.8 0 0 0 2.81-2.8h-8.32a2.8 2.8 0 0 0 2.81 2.8z"/><path fill="#C20016" d="M22.38 31.98h-2.71a2.8 2.8 0 0 0-2.8 2.8h8.3a2.8 2.8 0 0 0-2.8-2.8z"/><path fill="#929292" d="M10.03 20.19a3.76 3.76 0 1 0-7.53 0v7a3.76 3.76 0 1 0 7.53 0v-7z"/><path fill="#121212" d="M7.63 16.68a3.78 3.78 0 0 1 2.4 3.5v7a3.77 3.77 0 0 1-1.98 3.32l-.4.18-.02-14z" opacity=".2"/><path fill="#929292" d="M30 27.19a3.76 3.76 0 1 0 7.53 0v-7a3.76 3.76 0 1 0-7.53 0v7z"/><path fill="#303336" d="M32.4 16.68a3.78 3.78 0 0 0-2.4 3.5v7a3.77 3.77 0 0 0 1.98 3.32l.4.18.02-14z"/><path fill="#E6F1FC" d="M27.5 19.04c0-.3-.12-.58-.33-.8a1.1 1.1 0 0 0-.78-.32H14.23c-.31 0-.61.12-.83.34a1.2 1.2 0 0 0-.35.84L13 27.02c0 .3.11.59.32.8.2.22.49.34.78.34l2.98.04 1.54 2.4a.22.22 0 0 0 .22.16.22.22 0 0 0 .2-.18l.52-2.29 6.8-.06a1.11 1.11 0 0 0 .77-.33c.2-.2.33-.5.33-.79l.04-8.07z"/><path fill="#1884EF" d="M27.51 26.65a1.1 1.1 0 0 1-1.1 1.12l-6.8.06-.52 2.29a.22.22 0 0 1-.2.18.22.22 0 0 1-.14-.04.22.22 0 0 1-.08-.12l-1.53-2.4-2.99-.04a1.1 1.1 0 0 1-.77-.33 1.13 1.13 0 0 1-.32-.79v.52c0 .3.11.58.32.8.2.21.48.33.78.34l2.98.04 1.53 2.4a.22.22 0 0 0 .22.15.22.22 0 0 0 .2-.18l.52-2.28 6.8-.06a1.11 1.11 0 0 0 .78-.33c.2-.21.33-.5.33-.8" opacity=".17"/><path fill="#D0021B" fill-rule="evenodd" d="M17.97 19.65a.07.07 0 0 1 .05-.02c.03 0 .04.02.04.05a.09.09 0 0 1-.02.06 5.29 5.29 0 0 0-1.06 3.24c0 1.39.45 2.36 1.06 3.22a.09.09 0 0 1 .02.05c0 .03-.01.06-.04.06a.07.07 0 0 1-.05-.03l-2.62-2.83a.65.65 0 0 1-.1-.84.57.57 0 0 1 .1-.12l2.62-2.83" clip-rule="evenodd"/><mask id="a" width="8" height="8" x="18" y="19" maskUnits="userSpaceOnUse" style="mask-type:luminance"><path fill="#fff" fill-rule="evenodd" d="M18.48 19.63h6.68v7.1h-6.68v-7.1z" clip-rule="evenodd"/></mask><g mask="url(#a)"><path fill="#00529C" fill-rule="evenodd" d="M20.03 19.63c-1.12 0-1.55 1.62-1.55 3.56 0 1.93.43 3.54 1.55 3.54.66 0 1.23-.4 1.24-.74a.28.28 0 0 0-.1-.2 1.3 1.3 0 0 1-.43-.9c0-.54.44-.93.85-.93.57 0 .9.46.9 1.05a2.5 2.5 0 0 1-.48 1.4.09.09 0 0 0-.02.05.05.05 0 0 0 .04.05.08.08 0 0 0 .06-.02l2.84-2.83a.61.61 0 0 0 0-.96l-2.84-2.83a.08.08 0 0 0-.06-.03c-.02 0-.04.02-.04.05 0 .02 0 .04.02.05.25.38.48.84.48 1.4 0 .6-.33 1.06-.9 1.06-.4 0-.85-.4-.85-.93 0-.27.12-.59.44-.9a.29.29 0 0 0 .08-.2c0-.34-.56-.74-1.23-.74" clip-rule="evenodd"/></g></svg>